<svg xmlns="http://www.w3.org/2000/svg" version="1.1" xmlns:xlink="http://www.w3.org/1999/xlink" xmlns:svgjs="http://svgjs.com/svgjs" width="1000" height="1000"><rect width="1000" height="1000" rx="250" ry="250" fill="#0c0c0c"></rect><g transform="matrix(1,0,0,1,100,100)"><svg xmlns="http://www.w3.org/2000/svg" version="1.1" xmlns:xlink="http://www.w3.org/1999/xlink" xmlns:svgjs="http://svgjs.com/svgjs" width="800" height="800"><svg width="800" height="800" xmlns="http://www.w3.org/2000/svg">
    <path fill="#5C6BC0" d="M683.397 199.256V569.86q0 17.105-12.829 29.933t-29.933 12.829H155.999q-17.105 0-29.933-12.829t-12.829-29.933V199.256q0-17.105 12.829-29.933t29.933-12.829h484.636q17.105 0 29.933 12.829t12.829 29.933zM155.999 276.94h484.636v-77.684H155.999v77.684zm0 91.939V569.86h484.636V368.879H155.999zm0 200.981V199.256 569.86z" vector-effect="non-scaling-stroke"></path>
    <path fill="#FF7043" d="M575.851 686.304v-59.102q-40.105-7.036-65.787-30.607t-36.939-59.454l39.402-16.183q11.961 33.773 34.476 50.307t54.178 16.535q33.772 0 55.584-16.886t21.812-46.438q0-30.958-19.35-47.845t-72.822-34.476q-50.66-16.183-75.637-42.92t-24.978-66.842q0-38.698 24.978-64.731t65.083-29.551v-58.399h42.216v58.399q31.662 3.518 54.529 20.756t34.828 43.975l-39.401 16.886q-9.85-22.515-26.385-32.717t-43.272-10.202q-32.365 0-51.363 14.775t-18.997 40.106q0 26.736 21.108 43.271t78.1 34.125q47.845 14.775 70.712 42.567t22.867 70.009q0 44.326-26.034 71.415t-76.692 34.828v58.399h-42.216z" vector-effect="non-scaling-stroke"></path>
</svg></svg></g></svg>